<svg xmlns="http://www.w3.org/2000/svg" version="1.1" xmlns:xlink="http://www.w3.org/1999/xlink" xmlns:svgjs="http://svgjs.dev/svgjs" width="1000" height="651" viewBox="0 0 1000 651"><g transform="matrix(1,0,0,1,0.57655885724688,0.2635627530364104)"><svg viewBox="0 0 379 247" data-background-color="#fffbf4" preserveAspectRatio="xMidYMid meet" height="651" width="1000" xmlns="http://www.w3.org/2000/svg" xmlns:xlink="http://www.w3.org/1999/xlink"><g id="tight-bounds" transform="matrix(1,0,0,1,-0.21851580689656203,-0.09999999999999432)"><svg viewBox="0 0 379.4370316137931 247.2" height="247.2" width="379.4370316137931"><g><svg viewBox="0 0 379.4370316137931 247.2" height="247.2" width="379.4370316137931"><g><svg viewBox="0 0 198.44193103448276 247.2" height="247.2" width="198.44193103448276"><g id="textblocktransform"><svg viewBox="0 0 198.44193103448276 247.2" height="247.2" width="198.44193103448276" id="textblock"><g><svg viewBox="0 0 198.44193103448276 247.2" height="247.2" width="198.44193103448276"><g transform="matrix(1,0,0,1,0,0)"><svg width="198.44193103448276" viewBox="4.449999809265137 -36.25 29.099998474121094 36.25" height="247.2" data-palette-color="#fffefe"><path d="M4.45 0L4.45-36.25 13.55-36.25Q19.05-36.25 22.85-34.6 26.65-32.95 29.03-30.28 31.4-27.6 32.48-24.28 33.55-20.95 33.55-17.65L33.55-17.65Q33.55-13.6 32.1-10.33 30.65-7.05 28.15-4.75 25.65-2.45 22.35-1.23 19.05 0 15.35 0L15.35 0 4.45 0ZM9.9-5.2L14.55-5.2Q17.45-5.2 19.93-6.05 22.4-6.9 24.23-8.53 26.05-10.15 27.08-12.53 28.1-14.9 28.1-18L28.1-18Q28.1-21.3 26.95-23.75 25.8-26.2 23.95-27.83 22.1-29.45 19.78-30.23 17.45-31 15.05-31L15.05-31 9.9-31 9.9-5.2Z" opacity="1" transform="matrix(1,0,0,1,0,0)" fill="#fffefe" class="wordmark-text-0" data-fill-palette-color="primary" id="text-0"></path></svg></g></svg></g></svg></g></svg></g><g transform="matrix(1,0,0,1,256.7999182344828,62.28144331034482)"><svg viewBox="0 0 122.63711337931035 122.63711337931035" height="122.63711337931035" width="122.63711337931035"><g data-palette-color="#0659a0"><rect width="33.520810990344835" height="122.63711337931035" fill="#0659a0" stroke="transparent" data-fill-palette-color="accent" x="0" fill-opacity="1"></rect><rect width="33.520810990344835" height="122.63711337931035" fill="#0659a0" stroke="transparent" data-fill-palette-color="accent" x="40.87903779310346" fill-opacity="0.75"></rect><rect width="33.520810990344835" height="122.63711337931035" fill="#0659a0" stroke="transparent" data-fill-palette-color="accent" x="81.75807558620691" fill-opacity="0.5"></rect></g></svg></g></svg></g><defs></defs></svg><rect width="379.4370316137931" height="247.2" fill="none" stroke="none" visibility="hidden"></rect></g></svg></g></svg>